<svg xmlns="http://www.w3.org/2000/svg" version="1.1" xmlns:xlink="http://www.w3.org/1999/xlink" viewBox="0 0 200 200"><rect width="200" height="200" fill="url('#gradient')"></rect><defs><linearGradient id="gradient" gradientTransform="rotate(59 0.5 0.5)"><stop offset="0%" stop-color="#ffffff"></stop><stop offset="100%" stop-color="#be0000"></stop></linearGradient></defs><g><g fill="#141111" transform="matrix(3.7666588068851685,0,0,3.7666588068851685,17.9599417343929,126.78031948634235)" stroke="#ff1212" stroke-width="0.2"><path d="M6.69-4.82L4.50-4.82L4.50 0L1.07 0L1.07-14.22L6.75-14.22Q8.38-14.22 9.63-13.62Q10.89-13.02 11.58-11.91Q12.27-10.80 12.27-9.39L12.27-9.39Q12.27-7.31 10.78-6.07Q9.29-4.82 6.69-4.82L6.69-4.82ZM4.50-11.57L4.50-7.47L6.75-7.47Q7.74-7.47 8.27-7.97Q8.79-8.47 8.79-9.38L8.79-9.38Q8.79-10.37 8.25-10.97Q7.71-11.56 6.79-11.57L6.79-11.57L4.50-11.57ZM21.88 0L19.38-5.02L17.52-5.02L17.52 0L14.09 0L14.09-14.22L19.69-14.22Q22.22-14.22 23.64-13.10Q25.07-11.97 25.07-9.92L25.07-9.92Q25.07-8.44 24.47-7.46Q23.87-6.48 22.59-5.88L22.59-5.88L25.56-0.15L25.56 0L21.88 0ZM17.52-11.57L17.52-7.67L19.69-7.67Q20.66-7.67 21.16-8.18Q21.65-8.69 21.65-9.61Q21.65-10.53 21.15-11.05Q20.65-11.57 19.69-11.57L19.69-11.57L17.52-11.57ZM27.14-14.22L31.64-14.22L34.81-4.33L37.98-14.22L42.49-14.22L42.49 0L39.05 0L39.05-3.32L39.38-10.12L35.95 0L33.68 0L30.23-10.13L30.57-3.32L30.57 0L27.14 0L27.14-14.22Z"></path></g></g></svg>